<svg id="svg" xmlns="http://www.w3.org/2000/svg" viewBox="0 0 276.77 201.35"><defs><style>.cls-1{fill:#05c3fb;}.cls-1,.cls-2,.cls-3,.cls-4{fill-rule:evenodd;}.cls-2{fill:#041c54;}.cls-3{fill:#7484a4;}.cls-4{fill:#8ac9e7;}</style></defs><g id="svgg"><path id="path0" class="cls-1" d="M214.63,133.44l20.73,61.95,13.91.08,13.92.09L249,153.11c-7.81-23.35-17.16-51.27-20.79-62l-6.59-19.58H193.9l20.73,62M201.26,152a3.37,3.37,0,0,0-2,.69c-.45.79-11.14,32.73-11,32.87a5.1,5.1,0,0,0,1.62-.89c10.21-7,25.82-6.57,36.17,1.06l2,1.44-5.79-17.37-5.78-17.37-1.13-.18a126.48,126.48,0,0,0-14.05-.25m34.5,77c-12.56,2.53-19.61,14.15-16.5,27.17s18.65,19.53,33.12,13.89c4.05-1.58,3.87-1.26,3.77-6.91l-.09-4.85-1.66,1.05c-5.05,3.18-14.06,3.95-18.87,1.61-8.24-4-8-17.88.37-21.59,4.63-2.05,13.59-1.23,18.11,1.65a9.79,9.79,0,0,0,1.68.93,28.5,28.5,0,0,0,.21-4.91v-4.91l-2-1A30.61,30.61,0,0,0,235.76,229m40.57,0c-22.24,4.65-23.28,35.93-1.39,42.11,10.32,2.92,22.17-1.83,26.43-10.59,8.41-17.26-6.07-35.48-25-31.52m32,21.29v20.82l12.87-.11c14.62-.12,14.82-.15,18.26-2.94,6.13-5,5.48-16.28-1.08-18.47-.19-.06.37-.85,1.23-1.74,5.11-5.3,3-14.63-3.94-17.41-1.9-.77-2.06-.78-14.63-.87l-12.71-.1v20.82m21.53-12.48c2.5,1.25,2.44,6.2-.1,7.51-.72.38-2.09.49-5.91.49h-5v-8.69l5,.12c3.46.08,5.32.26,5.94.57m-43.11,1.9c11.42,5.62,6.15,23.56-6.55,22.27-12.52-1.27-14.07-19.67-1.95-23.11a13.44,13.44,0,0,1,8.5.84m43.73,14.53c1.77.74,2.28,1.6,2.39,4,.21,4.29-.77,4.85-8.47,4.85h-5.52v-9.28h5.29c3.74,0,5.58.13,6.31.44" transform="translate(-66.94 -70.71)"/><path id="path2" class="cls-2" d="M180,109c-.36,1-28.92,86.31-28.92,86.44s6.46.13,14.36.13h14.36l1.91-5.68c1.05-3.12,6.8-20.28,12.77-38.13l10.85-32.45-1.78-5.36-1.78-5.35H190.91c-8.35,0-10.84.09-11,.4M127.6,229c-20.25,3.84-24.1,31.83-5.49,39.81,4.33,1.86,5.65,2,20.2,2.15l13.51.13v-8h-3.36c-3.67,0-3.81-.09-2.37-1.46,4.88-4.67,6-13.81,2.57-21.09-4.16-8.83-14.38-13.53-25.06-11.5m-44.33,1.19c-.16.4-3.62,9.07-7.7,19.27s-7.7,19.22-8,20.06l-.6,1.52H77.71l1.68-4.32,1.68-4.31H96.51l1.63,4.24,1.63,4.23,5.36.09c5,.08,5.35.05,5.15-.48-.12-.31-3.83-9.67-8.26-20.79l-8-20.23H88.76c-5.11,0-5.22,0-5.49.72m76.15,13.43c.16,16.86.28,17.57,3.83,22.22,5.87,7.69,22.63,8.16,29.33.83,4.08-4.46,4.48-6.54,4.48-23.69V229.44H186.88l-.1,13.35c-.12,15.12-.1,15-2.75,17.41-2.9,2.61-9,2.53-11.85-.16-2.13-2-2.12-1.89-2.22-16.93l-.1-13.67H159.29l.13,14.15m44,6.64V271H213.7V229.44H203.46v20.79m-66-10.76c4.55,2.08,6.78,6.06,6.49,11.58-.8,15.2-22.8,14.41-22.8-.82,0-9,8.23-14.45,16.31-10.76m-46,8c1.33,3.66,2.36,6.71,2.29,6.78s-2.36.09-5.09,0l-5-.09L85.93,248c2.92-7.93,2.74-7.47,2.9-7.3s1.24,3.14,2.57,6.8" transform="translate(-66.94 -70.71)"/><path id="path3" class="cls-3" d="M188.06,194.57c0,.28-3.7.4-14.47.45l-14.47.08,14.37.09c13.53.08,15.53,0,14.79-.77-.12-.12-.22,0-.22.15M91.71,228.76a12.7,12.7,0,0,0,3.57.15c6.65-.14,7.36-.27,1.91-.33a33.62,33.62,0,0,0-5.48.18m78.54,0c1.55.06,4,.06,5.44,0s.17-.11-2.82-.11-4.17,0-2.62.11m24.6,12.62.08,12.88.08-12.71.09-12.71h10.22l.09,12.71.09,12.71V228.68l-5.36-.09-5.36-.09.08,12.88m16.63,8.15.08,21,.08-20.86.09-20.86H222l.08,20.7.09,20.71V228.68l-5.35-.09-5.36-.09.08,21m-48.61-2.15c0,.62.07.87.15.56a2.64,2.64,0,0,0,0-1.12c-.08-.3-.15,0-.15.56m-14.16,10.79-1.1,1.2,1.2-1.1c1.12-1,1.35-1.29,1.1-1.29a12.14,12.14,0,0,0-1.2,1.19m9.51,2.9c-1.25,1.31-1.18,1.35,2.58,1.27l3.44-.06-3.33-.11-3.32-.1.9-.95c.5-.52.84-.95.75-.95a5,5,0,0,0-1,.9m25.61,10.2a3.42,3.42,0,0,0,1.28,0c.3-.08,0-.14-.73-.13s-.95.06-.55.14m4.47,0a3.42,3.42,0,0,0,1.28,0c.31-.08,0-.14-.72-.13s-1,.06-.56.14" transform="translate(-66.94 -70.71)"/><path id="path4" class="cls-4" d="M215.86,70.8c10.6.07,14,.19,14.17.49s.25.27.15-.09-2-.48-14.17-.48H202l13.89.09m-1.18,80.25a6.11,6.11,0,0,0,1.6,0c.39-.08,0-.14-.88-.14s-1.2.07-.72.14m-5.12.31a2.64,2.64,0,0,0,1.12,0c.31-.08.06-.15-.56-.15s-.87.07-.56.15m4.49,27.83a19.76,19.76,0,0,0,2.88,0c.74-.07,0-.12-1.53-.12s-2.19.06-1.35.12m-74,48.6a5,5,0,0,0,1.44,0c.39-.08.07-.14-.72-.14s-1.12.06-.72.14m108.88,0a5.62,5.62,0,0,0,1.59,0c.4-.07,0-.13-.88-.13s-1.2.07-.71.14m40.12,0a5,5,0,0,0,1.44,0c.39-.08.07-.14-.72-.14s-1.12.06-.72.14m33.25,1c3.21.05,8.46.05,11.67,0s.59-.1-5.83-.1-9.05.05-5.84.1m-89.77,5.35a7.68,7.68,0,0,0-1.25,1.44,10.11,10.11,0,0,0,1.57-1.44,7.82,7.82,0,0,0,1.26-1.43,10.71,10.71,0,0,0-1.58,1.43m73.39.16a13,13,0,0,0,1.73,1.6,9.24,9.24,0,0,0-1.41-1.6,13,13,0,0,0-1.74-1.59,9.28,9.28,0,0,0,1.42,1.59m21.33,6.64.07,4.4.1-4.23.1-4.23,4.54-.1,4.55-.1-4.72-.07-4.71-.07.07,4.4m-77.53-3.21a10.33,10.33,0,0,0,2.08,0c.57-.07.1-.13-1-.13s-1.61.06-1,.13M140,238a5,5,0,0,0,1.44,0c.39-.08.07-.14-.72-.14s-1.12.06-.72.14m148.68,0a10.33,10.33,0,0,0,2.08,0c.57-.07.1-.13-1-.13s-1.61.06-1,.13m-61.88,9.36c0,.62.07.87.15.56a2.64,2.64,0,0,0,0-1.12c-.08-.3-.15,0-.15.56M301,249.62c0,1.32,0,1.86.12,1.2a13.74,13.74,0,0,0,0-2.4c-.07-.66-.12-.12-.12,1.2m-63.33-.16c0,.88.07,1.2.14.72a6.11,6.11,0,0,0,0-1.6c-.08-.4-.14,0-.14.88m29.4.16c0,.62.07.87.15.56a2.64,2.64,0,0,0,0-1.12c-.08-.31-.15-.05-.15.56m-40.29,2.24c0,.62.07.87.15.56a2.64,2.64,0,0,0,0-1.12c-.08-.31-.15-.06-.15.56m100.46,5.92c0,2.63.05,3.67.11,2.3s.06-3.53,0-4.8-.11-.14-.11,2.5M94.45,253.7c1.37.06,3.6.06,5,0s.25-.11-2.48-.11-3.84,0-2.48.11m170,8.94c-.09,2.85-.05,5.06.09,4.93a29.84,29.84,0,0,0,.16-5.18l-.09-4.93-.16,5.18m-124.3-1.29a2.64,2.64,0,0,0,1.12,0c.3-.08,0-.14-.56-.14s-.87.06-.56.14m148.68,0a7.4,7.4,0,0,0,1.76,0c.48-.07.09-.13-.88-.13s-1.36.06-.88.13m-39.33.33a16,16,0,0,0,2.4,0c.66-.07.12-.13-1.2-.13s-1.86.06-1.2.13M92.14,262c6.76.22,12.71.23,12.58,0a64.7,64.7,0,0,0-7.73-.17c-4.16,0-6.35.1-4.85.16m72.06,4.25c0,2.37.05,3.34.12,2.16s.06-3.13,0-4.32-.12-.22-.12,2.16m108.9-1.52c1.32,1.41,1.61,1.67,1.61,1.43a15.48,15.48,0,0,0-1.52-1.52l-1.52-1.43,1.43,1.52m-40.44.56a9.18,9.18,0,0,0,1.41,1.28,5.32,5.32,0,0,0-1.09-1.28,9.35,9.35,0,0,0-1.4-1.28,5.4,5.4,0,0,0,1.08,1.28m73.21-.24-.94,1,1-.94a7.58,7.58,0,0,0,1-1c0-.25-.26,0-1.13.94" transform="translate(-66.94 -70.71)"/></g></svg>